<svg width="41" height="8" viewBox="0 0 41 8" fill="none" xmlns="http://www.w3.org/2000/svg">
<path d="M0.333333 4C0.333333 5.47276 1.52724 6.66667 3 6.66667C4.47276 6.66667 5.66667 5.47276 5.66667 4C5.66667 2.52724 4.47276 1.33333 3 1.33333C1.52724 1.33333 0.333333 2.52724 0.333333 4ZM40.3536 4.35355C40.5488 4.15829 40.5488 3.84171 40.3536 3.64645L37.1716 0.464466C36.9763 0.269204 36.6597 0.269204 36.4645 0.464466C36.2692 0.659728 36.2692 0.976311 36.4645 1.17157L39.2929 4L36.4645 6.82843C36.2692 7.02369 36.2692 7.34027 36.4645 7.53553C36.6597 7.7308 36.9763 7.7308 37.1716 7.53553L40.3536 4.35355ZM3 4.5H4.85V3.5H3V4.5ZM8.55 4.5H12.25V3.5H8.55V4.5ZM15.95 4.5H19.65V3.5H15.95V4.5ZM23.35 4.5H27.05V3.5H23.35V4.5ZM30.75 4.5H34.45V3.5H30.75V4.5ZM38.15 4.5H40V3.5H38.15V4.5Z" fill="#FF2828"/>
</svg>
