<svg width="30" height="30" viewBox="0 0 30 30" fill="none" xmlns="http://www.w3.org/2000/svg">
<path d="M20.2959 11.2959L16.5905 15L20.2959 18.7041C20.4005 18.8086 20.4834 18.9327 20.5399 19.0692C20.5965 19.2058 20.6256 19.3522 20.6256 19.5C20.6256 19.6478 20.5965 19.7942 20.5399 19.9308C20.4834 20.0673 20.4005 20.1914 20.2959 20.2959C20.1914 20.4005 20.0673 20.4834 19.9308 20.5399C19.7942 20.5965 19.6478 20.6256 19.5 20.6256C19.3522 20.6256 19.2058 20.5965 19.0692 20.5399C18.9327 20.4834 18.8086 20.4005 18.7041 20.2959L15 16.5905L11.2959 20.2959C11.1914 20.4005 11.0673 20.4834 10.9308 20.5399C10.7942 20.5965 10.6478 20.6256 10.5 20.6256C10.3522 20.6256 10.2058 20.5965 10.0692 20.5399C9.93268 20.4834 9.80859 20.4005 9.70407 20.2959C9.59954 20.1914 9.51663 20.0673 9.46006 19.9308C9.4035 19.7942 9.37438 19.6478 9.37438 19.5C9.37438 19.3522 9.4035 19.2058 9.46006 19.0692C9.51663 18.9327 9.59954 18.8086 9.70407 18.7041L13.4095 15L9.70407 11.2959C9.49297 11.0848 9.37438 10.7985 9.37438 10.5C9.37438 10.2015 9.49297 9.91516 9.70407 9.70406C9.91516 9.49297 10.2015 9.37437 10.5 9.37437C10.7985 9.37437 11.0848 9.49297 11.2959 9.70406L15 13.4095L18.7041 9.70406C18.8086 9.59954 18.9327 9.51663 19.0692 9.46006C19.2058 9.40349 19.3522 9.37437 19.5 9.37437C19.6478 9.37437 19.7942 9.40349 19.9308 9.46006C20.0673 9.51663 20.1914 9.59954 20.2959 9.70406C20.4005 9.80859 20.4834 9.93267 20.5399 10.0692C20.5965 10.2058 20.6256 10.3522 20.6256 10.5C20.6256 10.6478 20.5965 10.7942 20.5399 10.9308C20.4834 11.0673 20.4005 11.1914 20.2959 11.2959ZM29.625 15C29.625 17.8926 28.7673 20.7201 27.1602 23.1252C25.5532 25.5303 23.2691 27.4048 20.5968 28.5117C17.9244 29.6187 14.9838 29.9083 12.1468 29.344C9.30984 28.7797 6.70391 27.3868 4.65857 25.3414C2.61323 23.2961 1.22033 20.6902 0.656022 17.8532C0.091713 15.0162 0.381337 12.0756 1.48827 9.40325C2.5952 6.73089 4.46972 4.44677 6.87479 2.83976C9.27986 1.23274 12.1075 0.375 15 0.375C18.8775 0.379095 22.5951 1.92125 25.3369 4.66309C28.0788 7.40492 29.6209 11.1225 29.625 15ZM27.375 15C27.375 12.5525 26.6492 10.1599 25.2894 8.12482C23.9297 6.08976 21.997 4.50363 19.7357 3.56699C17.4745 2.63036 14.9863 2.38529 12.5858 2.86278C10.1852 3.34027 7.98024 4.51888 6.24956 6.24955C4.51889 7.98023 3.34028 10.1852 2.86279 12.5858C2.3853 14.9863 2.63036 17.4745 3.567 19.7357C4.50363 21.9969 6.08977 23.9297 8.12482 25.2894C10.1599 26.6492 12.5525 27.375 15 27.375C18.2809 27.3713 21.4264 26.0663 23.7463 23.7463C26.0663 21.4264 27.3713 18.2809 27.375 15Z" fill="#676767"/>
</svg>
