<svg width="40" height="40" viewBox="0 0 40 40" fill="none" xmlns="http://www.w3.org/2000/svg">
<path d="M39.3281 16.5049L21.3281 0.504877C20.9623 0.179352 20.4897 -0.000488281 20 -0.000488281C19.5103 -0.000488281 19.0377 0.179352 18.6719 0.504877L0.671888 16.5049C0.275357 16.8571 0.0349943 17.3524 0.00367574 17.8819C-0.0276428 18.4114 0.152649 18.9316 0.504888 19.3281C0.857127 19.7246 1.35246 19.965 1.88192 19.9963C2.41138 20.0276 2.9316 19.8474 3.32813 19.4951L4.00001 18.898V38C3.99994 38.2627 4.05162 38.5228 4.15211 38.7654C4.25259 39.0081 4.39991 39.2286 4.58564 39.4144C4.77137 39.6001 4.99188 39.7474 5.23456 39.8479C5.47724 39.9484 5.73735 40.0001 6.00001 40H34C34.2627 40.0001 34.5228 39.9484 34.7655 39.8479C35.0081 39.7474 35.2286 39.6001 35.4144 39.4144C35.6001 39.2286 35.7474 39.0081 35.8479 38.7654C35.9484 38.5228 36.0001 38.2627 36 38V18.898L36.6719 19.4952C36.8682 19.6696 37.097 19.8036 37.3451 19.8896C37.5933 19.9756 37.8559 20.0119 38.1181 19.9964C38.3803 19.9809 38.6368 19.9139 38.8731 19.7992C39.1093 19.6846 39.3207 19.5245 39.4951 19.3282C39.6695 19.1318 39.8036 18.9031 39.8896 18.6549C39.9756 18.4068 40.0118 18.1441 39.9963 17.882C39.9808 17.6198 39.9138 17.3633 39.7992 17.127C39.6845 16.8907 39.5245 16.6793 39.3281 16.5049ZM14.3685 36C14.7761 34.8314 15.5372 33.8185 16.5463 33.1017C17.5553 32.385 18.7623 32 20 32C21.2377 32 22.4447 32.385 23.4538 33.1017C24.4628 33.8185 25.2239 34.8314 25.6315 36H14.3685ZM17 25C17 24.4067 17.176 23.8266 17.5056 23.3333C17.8352 22.8399 18.3038 22.4554 18.852 22.2284C19.4001 22.0013 20.0033 21.9419 20.5853 22.0576C21.1672 22.1734 21.7018 22.4591 22.1213 22.8787C22.5409 23.2982 22.8266 23.8328 22.9424 24.4147C23.0581 24.9967 22.9987 25.5999 22.7716 26.148C22.5446 26.6962 22.1601 27.1648 21.6667 27.4944C21.1734 27.8241 20.5934 28 20 28C19.2046 27.9991 18.4421 27.6828 17.8796 27.1204C17.3172 26.5579 17.0009 25.7954 17 25ZM32 36H29.7979C29.5213 34.674 28.9783 33.418 28.2018 32.3082C27.4253 31.1983 26.4314 30.2578 25.2805 29.5436C26.3826 28.2858 26.9932 26.6723 27 25C27 23.1435 26.2625 21.363 24.9498 20.0502C23.637 18.7375 21.8565 18 20 18C18.1435 18 16.363 18.7375 15.0503 20.0502C13.7375 21.363 13 23.1435 13 25C13.0068 26.6723 13.6174 28.2858 14.7195 29.5436C13.5686 30.2578 12.5747 31.1983 11.7982 32.3082C11.0217 33.418 10.4787 34.674 10.2021 36H8.00001V15.3424L20 4.67578L32 15.3424V36Z" fill="#FF2828"/>
</svg>
